<?xml version="1.0" standalone="no"?>
<!DOCTYPE svg PUBLIC "-//W3C//DTD SVG 20010904//EN"
 "http://www.w3.org/TR/2001/REC-SVG-20010904/DTD/svg10.dtd">
<svg version="1.0" xmlns="http://www.w3.org/2000/svg"
 width="512.000000pt" height="512.000000pt" viewBox="0 0 512.000000 512.000000"
 preserveAspectRatio="xMidYMid meet">

<g transform="translate(0.000000,512.000000) scale(0.100000,-0.100000)"
fill="#000000" stroke="none">
<path d="M0 2560 l0 -2560 2560 0 2560 0 0 2560 0 2560 -2560 0 -2560 0 0
-2560z m1480 1635 c5 -39 6 -40 47 -43 49 -4 71 -29 53 -61 -7 -14 -23 -21
-53 -23 -40 -3 -42 -5 -47 -38 -5 -33 -7 -35 -45 -35 -38 0 -40 2 -45 35 -5
33 -7 35 -50 40 -44 5 -45 6 -45 40 0 34 1 35 45 40 35 4 45 9 48 25 9 64 11
66 50 63 35 -3 37 -5 42 -43z m2298 -17 c7 -7 12 -33 12 -59 0 -53 -23 -79
-70 -79 -46 0 -70 26 -70 75 0 26 6 50 16 59 18 19 94 22 112 4z m-728 -68 l0
-50 89 0 c50 0 93 -4 96 -10 3 -5 37 -10 76 -10 l69 0 0 -70 0 -70 -61 0 c-46
0 -67 5 -86 20 -20 16 -41 20 -99 20 l-74 0 0 40 0 40 -450 0 -450 0 0 -40 0
-40 -74 0 c-58 0 -79 -4 -99 -20 -19 -15 -40 -20 -86 -20 l-61 0 0 69 0 69 78
6 c42 4 116 9 165 12 l87 5 0 50 0 49 440 0 440 0 0 -50z m-255 -220 c15 -16
31 -20 86 -20 56 0 70 -3 78 -19 18 -32 73 -51 154 -51 l75 0 7 -32 c5 -18 8
-41 8 -50 0 -10 7 -16 17 -15 11 1 16 7 12 16 -4 10 -2 12 9 5 8 -5 40 -7 72
-5 l57 3 0 -75 c0 -42 5 -79 10 -82 6 -3 10 -36 10 -72 0 -49 5 -72 18 -87 17
-21 17 -21 -4 -3 -25 21 -41 22 -24 2 9 -11 10 -19 3 -26 -8 -8 -11 -6 -10 7
2 17 -7 19 -79 22 -70 2 -86 6 -108 27 -14 13 -26 19 -26 14 0 -13 19 -33 48
-48 18 -10 20 -14 10 -25 -7 -8 -17 -12 -22 -9 -4 3 -3 9 4 13 9 6 9 9 1 15
-7 4 -18 1 -26 -5 -9 -8 -15 -8 -15 -2 0 6 5 12 11 14 5 2 -2 15 -16 28 -15
14 -26 21 -25 15 6 -29 -3 -26 -16 5 l-13 35 3 -32 c3 -18 0 -33 -5 -33 -5 0
-9 5 -9 11 0 5 -5 7 -10 4 -6 -4 -8 -11 -5 -16 4 -5 1 -9 -6 -9 -7 0 -2 -9 10
-19 16 -14 18 -21 9 -25 -7 -3 -4 -4 7 -3 18 2 20 -4 20 -46 0 -39 3 -47 18
-47 11 0 15 5 11 11 -3 6 -1 15 7 19 15 10 29 4 29 -11 0 -6 -4 -7 -10 -4 -5
3 -10 0 -10 -8 0 -10 7 -13 19 -10 12 3 17 11 14 19 -4 11 14 14 103 14 124 0
150 5 158 28 3 10 9 24 12 32 5 13 4 13 -5 0 -9 -12 -11 -10 -8 10 1 14 5 30
9 35 3 6 0 18 -7 28 -10 14 -14 15 -18 5 -3 -7 -6 -2 -6 12 -1 38 13 53 43 48
14 -3 27 0 29 6 2 6 8 8 12 4 4 -4 3 -21 -3 -37 -7 -19 -7 -31 -1 -31 5 0 9 9
9 20 0 13 7 20 19 20 10 0 22 7 25 16 5 12 10 14 20 5 7 -6 16 -8 19 -4 4 3 7
-19 7 -50 0 -55 1 -57 27 -57 28 0 63 -25 63 -45 0 -6 -26 -16 -57 -23 -85
-18 -134 -49 -163 -105 -14 -26 -32 -47 -41 -47 -9 0 -35 -14 -58 -30 l-42
-31 -30 25 c-17 14 -55 33 -85 42 -30 8 -54 21 -54 27 0 9 -2 9 -8 1 -4 -6
-25 -13 -47 -16 -95 -13 -203 -116 -213 -203 l-4 -42 -50 33 c-28 19 -54 34
-60 34 -5 0 -30 18 -56 39 -62 53 -109 71 -180 71 -82 0 -140 -23 -194 -76
l-46 -45 -34 17 c-37 20 -193 30 -203 13 -4 -5 -10 -7 -14 -5 -12 8 -96 -84
-120 -129 -12 -22 -21 -50 -21 -62 0 -13 -2 -23 -5 -23 -2 0 -28 14 -57 31
-46 28 -62 32 -128 33 -86 0 -142 -14 -194 -49 l-36 -24 0 169 c0 181 -2 175
48 173 6 -1 12 3 12 7 0 10 20 8 38 -3 7 -5 12 -3 12 4 0 9 3 9 14 0 11 -9 18
-8 32 6 16 16 17 17 11 1 -3 -10 -2 -20 3 -23 6 -4 10 -52 10 -108 0 -64 4
-97 9 -88 5 8 7 21 4 30 -3 12 -2 12 7 -1 6 -10 19 -18 28 -18 15 0 15 2 2 10
-13 9 -13 11 0 19 18 12 33 3 26 -15 -3 -8 -1 -14 4 -14 6 0 10 8 10 18 0 14
2 15 9 2 6 -8 7 -18 5 -22 -3 -4 2 -8 10 -8 8 0 17 -8 19 -17 3 -10 5 53 6
140 1 118 -2 156 -11 151 -8 -5 -9 -2 -5 9 4 12 1 17 -11 17 -14 0 -15 2 -2 9
8 6 19 7 25 3 16 -10 36 -11 29 -1 -3 5 -10 6 -16 3 -6 -4 -8 -2 -5 3 4 6 17
8 31 6 13 -3 26 0 30 5 4 7 16 7 35 -1 24 -9 32 -8 46 6 22 23 41 22 24 0 -7
-10 -10 -15 -5 -11 5 4 21 1 37 -8 16 -8 29 -12 29 -9 0 4 5 3 11 -1 8 -4 8
-9 0 -17 -6 -6 -11 -27 -12 -46 -1 -33 -2 -34 -9 -11 -6 20 -8 21 -8 5 0 -11
3 -31 7 -45 7 -21 9 -18 15 25 11 72 17 80 11 13 -4 -48 -3 -56 10 -52 12 5
14 21 10 85 l-4 79 35 0 c19 0 34 5 34 10 0 6 20 10 45 10 45 0 53 -6 35 -28
-7 -9 -7 -9 2 -2 18 15 45 12 45 -5 0 -10 -11 -15 -34 -15 -23 0 -33 5 -33 15
0 8 -6 14 -12 13 -23 -5 -38 -38 -17 -38 5 0 7 5 4 10 -3 6 -1 10 4 10 6 0 11
-4 11 -10 0 -7 144 -10 411 -10 365 0 410 2 399 15 -10 12 -9 15 6 15 17 1 17
2 -2 13 -19 10 -20 14 -7 25 8 8 13 21 11 30 -3 16 -42 17 -441 20 l-437 2 0
40 c0 22 -4 40 -10 40 -5 0 -10 -7 -10 -16 0 -14 -1 -14 -16 0 -15 16 -39 13
-29 -4 3 -5 2 -11 -3 -14 -5 -3 -8 16 -9 42 0 30 -4 46 -12 44 -6 -1 -11 2
-11 8 0 5 -4 10 -10 10 -5 0 -10 -18 -10 -40 0 -24 5 -40 12 -40 9 0 9 -3 0
-12 -13 -13 -181 -13 -195 1 -6 6 -6 68 -1 158 5 81 10 131 12 111 2 -21 8
-38 13 -38 6 0 8 15 5 35 -4 20 -2 35 4 35 6 0 10 -9 10 -20 0 -11 3 -20 8
-20 4 -1 32 -2 62 -4 l55 -4 -60 16 c-46 12 -55 17 -40 23 11 4 29 7 40 7 16
0 15 -2 -5 -8 -19 -6 -12 -7 27 -7 29 1 47 5 40 9 -7 5 -8 8 -1 8 6 0 15 17
20 38 l9 37 81 5 c81 5 128 24 141 56 4 10 23 14 69 14 50 0 68 4 82 19 15 18
33 19 193 20 164 1 177 0 194 -19z m746 -10 l89 0 0 -70 0 -70 -61 0 c-54 0
-66 4 -120 40 -54 37 -59 44 -59 77 0 34 1 35 31 29 17 -3 71 -6 120 -6z
m-2211 -20 c25 -25 27 -95 4 -128 -12 -18 -25 -22 -69 -22 -65 0 -85 21 -85
87 0 58 25 83 85 83 32 0 51 -6 65 -20z m500 -9 c0 -25 -9 -35 -66 -70 -57
-36 -72 -41 -125 -41 l-59 0 0 70 0 70 125 0 125 0 0 -29z m2174 7 c25 -36 21
-104 -8 -133 -22 -22 -31 -24 -73 -19 -67 9 -73 17 -73 90 0 75 9 83 87 84 42
0 55 -4 67 -22z m-2434 -203 l0 -75 -80 0 -80 0 0 75 0 75 80 0 80 0 0 -75z
m2220 0 l0 -75 -80 0 -80 0 0 75 0 75 80 0 80 0 0 -75z m-321 -79 c-20 -17
-49 -25 -55 -14 -4 6 -3 8 2 5 6 -3 16 -2 24 4 14 8 38 13 29 5z m-2461 -28
c-2 -17 -11 -24 -30 -26 -20 -2 -28 -9 -28 -22 0 -13 8 -20 28 -22 19 -2 28
-9 30 -25 3 -21 -1 -23 -42 -23 -51 0 -66 16 -66 70 0 54 15 70 66 70 41 0 45
-2 42 -22z m3302 3 c14 -27 13 -94 -2 -109 -7 -7 -32 -12 -56 -12 -39 0 -43 2
-40 23 2 16 11 23 31 25 19 2 27 9 27 22 0 13 -8 20 -27 22 -20 2 -29 9 -31
26 -3 20 1 22 42 22 35 0 48 -5 56 -19z m-2910 -17 c6 -14 7 -50 4 -80 l-7
-54 -63 0 -64 0 0 68 c0 40 5 73 12 80 7 7 34 12 60 12 43 0 50 -3 58 -26z
m418 -14 c1 -24 -3 -40 -9 -40 -7 0 -7 -6 2 -17 10 -11 10 -14 2 -9 -7 4 -13
2 -13 -3 0 -6 5 -11 10 -11 6 0 10 -5 10 -11 0 -5 -5 -7 -11 -3 -7 4 -9 0 -5
-14 8 -24 -11 -39 -27 -23 -9 9 -8 11 6 6 10 -4 17 -2 17 4 0 6 -4 11 -9 11
-13 0 -19 48 -8 59 8 8 7 11 -1 11 -7 0 -12 9 -12 20 0 13 7 20 20 20 11 0 19
3 19 8 -2 12 1 32 4 32 2 0 4 -18 5 -40z m2113 13 c6 -15 9 -50 7 -78 l-3 -50
-68 -3 c-60 -3 -67 -1 -67 16 0 11 -3 47 -6 81 l-7 61 67 0 c63 0 67 -1 77
-27z m-430 -6 c-10 -9 -11 -8 -5 6 3 10 9 15 12 12 3 -3 0 -11 -7 -18z m-1834
-24 c32 -14 43 -24 43 -40 0 -15 5 -21 14 -17 8 3 17 1 21 -5 3 -7 0 -8 -9 -5
-11 4 -13 0 -9 -15 3 -11 9 -19 13 -16 4 3 10 -1 13 -9 4 -10 -2 -13 -18 -12
-19 1 -23 5 -19 22 4 14 0 23 -11 28 -11 4 -14 2 -9 -6 4 -7 7 -45 6 -86 -1
-101 -13 -112 -122 -112 l-80 0 0 62 c0 71 17 98 61 98 36 0 40 9 40 75 0 62
3 63 66 38z m1449 -108 c17 -16 14 -18 -10 -9 -9 3 -16 10 -16 15 0 13 9 11
26 -6z m-1079 -10 c0 -8 -4 -12 -9 -9 -5 3 -6 10 -3 15 9 13 12 11 12 -6z m63
-5 c0 -11 -4 -20 -10 -20 -5 0 -10 9 -10 20 0 11 5 20 10 20 6 0 10 -9 10 -20z
m-360 -16 c0 -9 5 -12 13 -8 9 5 9 4 0 -6 -6 -7 -16 -9 -22 -6 -14 9 -14 36
-1 36 6 0 10 -7 10 -16z m1680 1 c0 -8 -4 -15 -10 -15 -5 0 -7 7 -4 15 4 8 8
15 10 15 2 0 4 -7 4 -15z m-93 -1 c-3 -3 -12 -4 -19 -1 -8 3 -5 6 6 6 11 1 17
-2 13 -5z m-802 -74 c-3 -5 -19 -10 -35 -10 -16 0 -32 -5 -36 -12 -5 -8 0 -9
14 -6 12 4 20 2 16 -3 -3 -5 -23 -9 -45 -9 -32 0 -39 3 -39 19 0 21 10 24 88
29 27 1 41 -2 37 -8z m148 -17 c-7 -2 -19 -2 -25 0 -7 3 -2 5 12 5 14 0 19 -2
13 -5z m247 -3 c0 -5 -3 -9 -7 -8 -5 0 -16 -2 -25 -6 -9 -4 -25 -6 -35 -3 -12
3 -8 5 10 6 15 0 27 6 27 11 0 6 7 10 15 10 8 0 15 -4 15 -10z m-324 -13 c4
-4 -17 -6 -47 -6 -48 1 -50 2 -19 8 41 8 57 8 66 -2z m61 -3 c-3 -3 -12 -4
-19 -1 -8 3 -5 6 6 6 11 1 17 -2 13 -5z m-902 -54 c-3 -5 -12 -10 -18 -10 -7
0 -6 4 3 10 19 12 23 12 15 0z m2389 -32 c12 -17 16 -49 16 -133 0 -60 -3
-127 -6 -147 l-7 -38 -253 0 -254 0 0 -60 0 -59 142 -3 143 -3 13 -27 c12 -26
17 -28 79 -28 61 0 67 -2 99 -34 28 -28 34 -42 34 -75 l0 -41 45 0 c35 0 52
-6 77 -29 l33 -29 0 -132 0 -132 -33 -29 c-25 -23 -42 -29 -77 -29 l-45 0 0
-45 c0 -35 -6 -52 -29 -77 l-29 -33 -291 -3 c-327 -4 -361 1 -391 51 -16 26
-20 50 -20 124 0 50 3 99 6 108 15 39 53 45 299 45 l235 0 0 60 0 60 -140 0
c-157 0 -186 8 -198 54 -7 28 -13 32 -53 36 -33 4 -58 16 -91 43 -26 21 -49
45 -52 53 -3 9 -6 93 -6 188 0 218 8 233 135 245 l60 6 3 47 c2 37 9 52 29 68
24 19 40 20 269 20 240 0 243 0 258 -22z m-2347 -70 c-3 -8 -6 -5 -6 6 -1 11
2 17 5 13 3 -3 4 -12 1 -19z m-80 -50 c-3 -7 -5 -2 -5 12 0 14 2 19 5 13 2 -7
2 -19 0 -25z m90 -35 c-3 -10 -5 -4 -5 12 0 17 2 24 5 18 2 -7 2 -21 0 -30z
m1429 3 l35 -35 -3 -469 -3 -470 -24 -26 c-44 -46 -151 -43 -186 7 -8 12 -15
42 -15 68 l0 46 -48 7 c-27 3 -58 15 -69 26 -22 20 -46 79 -41 100 2 7 -12 18
-30 24 -43 15 -52 30 -52 94 0 46 -2 52 -21 52 -29 0 -59 18 -59 35 0 10 -11
15 -35 15 l-35 0 0 -296 0 -296 -29 -29 c-26 -25 -37 -29 -86 -29 -49 0 -60 4
-86 29 l-29 29 0 512 0 512 29 29 c26 26 36 29 93 29 54 0 68 -4 85 -22 12
-13 23 -36 25 -53 3 -29 4 -30 70 -35 81 -6 100 -21 108 -87 l5 -48 42 -3 c49
-4 65 -20 72 -75 5 -37 9 -42 35 -45 16 -2 33 1 39 7 6 6 11 79 11 190 1 164
3 181 21 201 26 29 51 39 104 39 36 1 48 -4 77 -33z m-1902 -87 l26 -31 0
-242 c0 -254 2 -266 45 -266 34 0 45 20 45 85 0 70 12 87 70 102 31 8 35 13
38 44 7 93 30 109 156 109 74 0 88 -3 112 -23 21 -18 28 -35 32 -75 4 -49 6
-52 32 -52 52 0 71 -27 73 -103 3 -70 12 -87 49 -87 9 0 24 7 32 16 14 13 16
48 16 225 l0 211 29 29 c26 25 37 29 86 29 49 0 60 -4 86 -29 l29 -29 0 -472
0 -472 -29 -29 c-25 -24 -38 -29 -80 -29 -27 0 -61 5 -75 11 -28 13 -56 64
-56 103 0 17 -5 26 -15 26 -38 0 -74 30 -85 70 -8 28 -16 40 -29 40 -28 0 -71
39 -71 63 0 46 -12 67 -36 67 -42 0 -64 33 -64 96 l0 55 -42 -3 -43 -3 -3 -55
c-4 -63 -22 -90 -62 -90 -25 0 -28 -4 -32 -45 -7 -55 -20 -73 -63 -81 -29 -5
-33 -10 -39 -45 -5 -29 -13 -42 -36 -54 -16 -8 -38 -15 -50 -15 -17 0 -20 -6
-20 -41 0 -31 -6 -47 -29 -70 -26 -26 -36 -29 -91 -29 -55 0 -65 3 -91 29
l-29 29 -1 379 c-1 208 -2 383 -4 388 -1 6 -3 16 -3 23 -1 7 -16 12 -34 12
-43 0 -96 33 -109 68 -6 15 -9 54 -7 86 4 49 9 63 32 83 26 22 34 23 171 23
l143 0 26 -31z m1583 -1063 c9 -32 27 -57 73 -99 l61 -57 -3 -102 -3 -103
-434 -3 c-456 -2 -450 -3 -451 41 0 14 9 17 45 17 48 0 146 32 165 55 9 11 16
11 45 -1 51 -21 134 -28 185 -14 99 26 190 114 190 184 0 15 7 49 16 77 16 48
17 49 58 49 41 0 42 -1 53 -44z m-1249 0 c2 -16 -1 -33 -5 -37 -10 -10 1 -99
18 -155 5 -17 9 -43 9 -58 0 -24 -3 -27 -27 -24 -23 2 -29 8 -31 36 -2 21 -12
38 -28 48 -22 15 -24 22 -24 103 l0 86 33 16 c42 21 51 18 55 -15z m233 -33
c27 -5 29 -9 29 -51 0 -41 5 -50 45 -89 25 -23 45 -47 45 -53 0 -6 -37 -10
-95 -10 -92 0 -95 1 -95 23 -1 12 -3 62 -6 111 l-6 89 27 -7 c15 -4 40 -10 56
-13z m1473 -185 c-5 -15 -18 -18 -90 -18 l-84 0 0 29 c0 25 4 29 38 35 32 5
141 66 119 66 -5 0 -5 6 0 13 9 14 24 -99 17 -125z m326 79 c0 -19 -21 -37
-44 -37 -31 0 -56 -30 -56 -67 l0 -33 -50 0 -50 0 0 34 c0 30 4 35 45 50 32
13 47 25 51 42 5 21 12 24 55 24 34 0 49 -4 49 -13z m-2810 -39 c44 -47 11
-118 -54 -118 -37 0 -76 36 -76 70 0 10 9 29 21 44 27 34 79 36 109 4z m243
-186 c26 -23 23 -87 -5 -106 -53 -37 -118 -5 -118 57 0 66 71 95 123 49z m875
-34 c12 -12 17 -104 6 -132 -5 -13 -23 -16 -90 -16 l-84 0 0 73 c0 41 3 77 7
80 12 12 148 8 161 -5z m1361 -1 c7 -9 8 -37 4 -81 l-6 -67 -81 3 -81 3 -3 64
c-2 35 -1 70 2 77 7 19 149 19 165 1z m-321 -155 c4 -53 -10 -72 -54 -72 -18
0 -36 -4 -39 -10 -8 -13 -695 -14 -695 -1 0 6 -19 11 -42 13 l-43 3 -3 49 c-2
32 1 52 10 57 7 5 204 8 438 6 l425 -2 3 -43z m880 -294 c18 -18 15 -88 -5
-110 -23 -25 -87 -24 -113 2 -22 22 -26 70 -10 101 9 15 22 19 63 19 29 0 58
-5 65 -12z m-2473 -32 c11 -8 16 -19 12 -30 -9 -23 -92 -23 -101 0 -15 38 49
60 89 30z"/>
<path d="M2029 3541 c11 -7 11 -9 0 -14 -8 -3 -4 -4 8 -4 17 1 19 4 11 14 -6
7 -16 13 -22 13 -6 0 -5 -4 3 -9z"/>
<path d="M3066 3493 c-6 -14 -5 -15 5 -6 7 7 10 15 7 18 -3 3 -9 -2 -12 -12z"/>
<path d="M3120 3489 c0 -5 5 -7 10 -4 6 3 10 8 10 11 0 2 -4 4 -10 4 -5 0 -10
-5 -10 -11z"/>
<path d="M3171 3493 c0 -4 4 -17 9 -28 8 -19 9 -19 9 2 1 12 -3 25 -9 28 -5 3
-10 3 -9 -2z"/>
<path d="M2153 3450 c0 -25 2 -35 4 -22 2 12 2 32 0 45 -2 12 -4 2 -4 -23z"/>
<path d="M3480 3385 c0 -8 4 -15 8 -15 5 0 9 7 9 15 0 8 -4 15 -9 15 -4 0 -8
-7 -8 -15z"/>
<path d="M3056 3375 c-3 -8 -1 -15 4 -15 6 0 10 7 10 15 0 8 -2 15 -4 15 -2 0
-6 -7 -10 -15z"/>
<path d="M3052 3271 c-11 -7 -11 -9 0 -14 9 -3 15 1 15 9 0 8 -1 14 -1 14 -1
0 -7 -4 -14 -9z"/>
<path d="M3250 3276 c0 -2 7 -6 15 -10 8 -3 15 -1 15 4 0 6 -7 10 -15 10 -8 0
-15 -2 -15 -4z"/>
<path d="M3385 3270 c3 -5 8 -10 11 -10 2 0 4 5 4 10 0 6 -5 10 -11 10 -5 0
-7 -4 -4 -10z"/>
<path d="M3338 3253 c7 -3 16 -2 19 1 4 3 -2 6 -13 5 -11 0 -14 -3 -6 -6z"/>
<path d="M1898 3243 c23 -2 59 -2 80 0 20 2 1 4 -43 4 -44 0 -61 -2 -37 -4z"/>
<path d="M3288 3243 c7 -3 16 -2 19 1 4 3 -2 6 -13 5 -11 0 -14 -3 -6 -6z"/>
<path d="M3063 3225 c0 -7 6 -11 14 -8 7 3 13 6 13 8 0 2 -6 5 -13 8 -8 3 -14
-1 -14 -8z"/>
<path d="M2153 3170 c0 -30 2 -43 4 -27 2 15 2 39 0 55 -2 15 -4 2 -4 -28z"/>
<path d="M2808 3189 c-21 -12 -24 -59 -6 -77 27 -27 88 -3 88 34 0 17 -36 54
-52 54 -7 0 -21 -5 -30 -11z"/>
<path d="M1665 3480 c-3 -5 -1 -10 4 -10 6 0 11 5 11 10 0 6 -2 10 -4 10 -3 0
-8 -4 -11 -10z"/>
</g>
</svg>
